<?xml version="1.0" encoding="utf-8"?>
<svg viewBox="0 0 500 500" xmlns="http://www.w3.org/2000/svg">
  <path d="M 26.695 485.77 C 22.792 485.77 18.961 484.235 16.11 481.384 C 12.075 477.349 10.686 471.355 12.528 465.96 L 45.7 368.915 C 23.449 331.707 11.724 289.457 11.724 246.241 C 11.724 114.167 119.179 6.712 251.253 6.712 C 383.327 6.712 490.782 114.167 490.782 246.241 C 490.782 378.315 383.327 485.77 251.253 485.77 C 208.037 485.77 165.786 474.045 128.579 451.794 L 31.534 484.965 C 29.955 485.506 28.317 485.769 26.695 485.77 Z M 130.436 420.361 C 133.258 420.361 136.065 421.165 138.506 422.715 C 172.351 444.381 211.341 455.829 251.253 455.829 C 366.821 455.829 460.841 361.81 460.841 246.241 C 460.841 130.672 366.821 36.653 251.253 36.653 C 135.685 36.653 41.665 130.672 41.665 246.241 C 41.665 286.153 53.112 325.143 74.779 358.988 C 77.235 362.833 77.805 367.584 76.329 371.897 L 50.73 446.764 L 125.597 421.165 C 127.176 420.624 128.813 420.361 130.436 420.361 Z" transform="matrix(-0.000001, -1, 1, -0.000001, 5.012142, 497.494125)"/>
</svg>