<?xml version="1.0" standalone="no"?>
<!DOCTYPE svg PUBLIC "-//W3C//DTD SVG 20010904//EN"
 "http://www.w3.org/TR/2001/REC-SVG-20010904/DTD/svg10.dtd">
<svg version="1.0" xmlns="http://www.w3.org/2000/svg"
 width="40.000000pt" height="40.000000pt" viewBox="0 0 40.000000 40.000000"
 preserveAspectRatio="xMidYMid meet">

<g transform="translate(0.000000,40.000000) scale(0.100000,-0.100000)"
fill="#000000" stroke="none">
<path d="M122 359 c-122 -62 -133 -231 -21 -306 150 -99 337 61 259 222 -44
91 -151 129 -238 84z m148 -21 c48 -25 90 -89 90 -138 0 -49 -42 -113 -90
-137 -56 -29 -84 -29 -140 0 -33 16 -51 34 -68 67 -28 56 -28 84 1 140 24 48
88 90 137 90 14 0 46 -10 70 -22z"/>
<path d="M125 210 c-7 -12 2 -30 16 -30 5 0 9 9 9 20 0 21 -15 27 -25 10z"/>
<path d="M250 200 c0 -13 5 -20 13 -17 6 2 12 10 12 17 0 7 -6 15 -12 18 -8 2
-13 -5 -13 -18z"/>
<path d="M140 132 c0 -5 14 -15 30 -22 24 -10 36 -10 60 0 17 7 30 17 30 22 0
6 -7 7 -17 2 -23 -10 -63 -10 -85 0 -11 5 -18 4 -18 -2z"/>
</g>
</svg>
